<?xml version="1.0"?>
<svg xmlns="http://www.w3.org/2000/svg" xmlns:xlink="http://www.w3.org/1999/xlink" xmlns:svgjs="http://svgjs.com/svgjs" version="1.1" width="512" height="512" x="0" y="0" viewBox="0 0 511 511.99999" style="enable-background:new 0 0 512 512" xml:space="preserve" class=""><g>
<g xmlns="http://www.w3.org/2000/svg" id="surface1">
<path d="M 222.15625 0 L 0.5 128 L 0.5 383.996094 L 222.15625 512 L 443.808594 383.996094 L 443.808594 128 Z M 222.15625 0 " style="" fill="#2fa5e2" data-original="#33739e" class=""/>
<path d="M 222.15625 0 L 222.15625 512 L 443.808594 383.996094 L 443.808594 128 Z M 222.15625 0 " style="" fill="#2fa5e2" data-original="#275c7f" class=""/>
<path d="M 115.335938 317.578125 L 53.757812 256 L 115.335938 194.417969 L 136.566406 215.648438 L 96.210938 256 L 136.566406 296.351562 Z M 115.335938 317.578125 " style="" fill="#ffffff" data-original="#54bafc" class=""/>
<path d="M 328.972656 317.578125 L 307.746094 296.351562 L 348.097656 256 L 307.746094 215.648438 L 328.972656 194.417969 L 390.554688 256 Z M 328.972656 317.578125 " style="" fill="#ffffff" data-original="#4aa3de" class=""/>
<path d="M 244.058594 178.617188 L 270.90625 192.039062 L 200.246094 333.363281 L 173.394531 319.9375 Z M 244.058594 178.617188 " style="" fill="#ffffff" data-original="#54bafc" class=""/>
</g>
</g></svg>
