<?xml version="1.0"?>
<svg xmlns="http://www.w3.org/2000/svg" xmlns:xlink="http://www.w3.org/1999/xlink" xmlns:svgjs="http://svgjs.com/svgjs" version="1.1" width="512" height="512" x="0" y="0" viewBox="0 0 511.991 511.991" style="enable-background:new 0 0 512 512" xml:space="preserve" class=""><g><g xmlns="http://www.w3.org/2000/svg"><g><path d="m230.927 288.128v155.282c0 33.076-26.31 60.646-59.383 61.076-33.605.437-60.984-26.673-60.984-60.178v-243.513c0-33.301 27.244-61.37 60.544-61.174 12.089.071 23.326 3.717 32.726 9.922 2.59 1.71 5.827 2.071 8.739 1 6.296-2.314 12.78-4.173 19.426-5.559 9.536-1.989 19.573-.088 29.688-.088 38.315 0 61.332 10.379 85.803 35.536 30.681 31.542 45.425 79.453 43.828 142.416v119.399c0 33.076-16.31 58.76-49.383 59.19-11.279.147-21.856-.924-30.932-6.184-17.967-10.412-30.052-29.849-30.052-52.109v-155.016c0-13.813-11.197-25.01-25.01-25.01-13.813 0-25.01 11.198-25.01 25.01z" fill="#43beff" data-original="#d1f19e" style="" class=""/><g><path d="m357.486 180.432c-24.47-25.158-57.656-38.455-95.971-38.455-10.116 0-19.981 1.026-29.517 3.015 25.489 5.236 47.774 17.227 65.489 35.44 30.681 31.542 45.425 79.452 43.828 142.417v119.399c0 22.471-12.151 42.389-30.309 52.994 9.076 5.26 19.646 8.228 30.925 8.082 33.073-.43 59.383-28 59.383-61.076v-119.399c1.597-62.964-13.147-110.875-43.828-142.417z" fill="#43beff" data-original="#a2e62e" style="" class=""/></g><path d="m302.397 7.491-62.47 4.585-13.331 4.405-6.353-2.961-12.548.921c-20.876 1.532-37.545 17.193-40.923 37.208-.412 2.442 9.374 4.949 9.374 7.502 0 2.553-9.786 5.06-9.374 7.502 3.378 20.016 20.047 35.677 40.924 37.209l12.472.915 7.524-2.072 12.093 3.511 62.614 4.595s34.112-8.096 35.949-57.23c1.835-49.131-35.951-46.09-35.951-46.09z" fill="#eef5f6" data-original="#eef5f6" style="" class=""/></g><g><path d="m273.447 347.152c0 4.143 3.357 7.5 7.5 7.5s7.5-3.357 7.5-7.5v-59.023c0-17.926-14.584-32.51-32.51-32.51s-32.51 14.584-32.51 32.51v155.281c0 29.17-23.318 53.204-51.981 53.577-14.189.217-27.605-5.207-37.71-15.184-10.108-9.977-15.676-23.294-15.676-37.496v-172.965c0-4.143-3.357-7.5-7.5-7.5s-7.5 3.357-7.5 7.5v172.965c0 18.245 7.151 35.353 20.138 48.172 12.77 12.603 29.618 19.513 47.536 19.512.302 0 .605-.002.907-.006 36.826-.479 66.786-31.241 66.786-68.575v-155.282c0-9.655 7.854-17.51 17.51-17.51 9.655 0 17.51 7.855 17.51 17.51z" fill="#000000" data-original="#000000" style="" class=""/><path d="m294.898 117.783v20.149c-10.628-2.287-21.784-3.455-33.383-3.455-17.902 0-35.241 3.037-51.532 9.026-.689.254-1.425.174-2.02-.221-10.946-7.225-23.677-11.085-36.814-11.161-.132-.001-.262-.001-.395-.001-17.656 0-34.409 6.993-47.207 19.715-13.02 12.943-20.486 30.788-20.486 48.96v37.861c0 4.143 3.357 7.5 7.5 7.5s7.5-3.357 7.5-7.5v-37.861c0-14.206 5.854-28.174 16.062-38.321 9.967-9.908 22.966-15.354 36.635-15.354.102 0 .203 0 .304.001 10.223.06 20.126 3.061 28.638 8.68 4.546 3.002 10.325 3.67 15.46 1.781 14.63-5.378 30.227-8.105 46.357-8.105 11.677 0 22.84 1.306 33.383 3.859v50.486c0 4.143 3.358 7.5 7.5 7.5 4.143 0 7.5-3.357 7.5-7.5v-45.849c15.999 6.084 30.232 15.372 42.213 27.689 29.218 30.039 43.25 76.132 41.705 136.997-.001.063-.002.127-.002.19v119.398c0 29.17-23.318 53.204-51.982 53.577-14.196.202-27.604-5.208-37.71-15.184-10.108-9.978-15.676-23.294-15.676-37.496v-63.308c0-4.143-3.357-7.5-7.5-7.5s-7.5 3.357-7.5 7.5v63.308c0 18.245 7.151 35.353 20.138 48.172 12.77 12.604 29.618 19.513 47.536 19.512.302 0 .605-.002.907-.006 36.826-.478 66.786-31.241 66.786-68.575v-119.304c1.633-65.007-13.827-114.713-45.951-147.74-14.882-15.299-32.779-26.448-52.965-33.176v-24.582c9.205-2.121 17.572-8.133 24.075-17.479 7.656-11.003 11.873-25.498 11.873-40.815s-4.217-29.81-11.873-40.813c-8.171-11.741-19.277-18.239-31.299-18.338l-95.53 6.961c-27.197 1.996-48.501 24.921-48.501 52.19 0 10.659 3.19 20.921 9.226 29.677 1.455 2.11 3.798 3.244 6.182 3.244 1.467 0 2.95-.43 4.25-1.326 3.41-2.351 4.27-7.021 1.918-10.432-2.863-4.153-4.805-8.789-5.799-13.663h33.272c.902 10.529 3.71 20.856 8.213 30.295l-13.035-1.348c-4.052-.893-8.049 1.66-8.942 5.704-.895 4.045 1.66 8.048 5.704 8.942zm-72.105-66.131c1.221-11.241 5.084-22.334 11.061-31.611l37.749-2.77c-.26.356-.527.701-.782 1.068-6.393 9.187-10.377 20.812-11.521 33.313zm108.053 7.5c0 23.848-12.93 44.004-28.275 44.155l-2.968-.218c-14.168-2.261-25.655-21.46-25.655-43.937 0-22.476 11.487-41.676 25.655-43.936l2.968-.218c15.345.151 28.275 20.306 28.275 44.154zm-122.603-37.232 7.776-.571c-4.482 9.441-7.346 19.846-8.294 30.302h-33.307c3.312-16.001 16.981-28.494 33.825-29.731zm14.529 44.732h36.529c1.144 12.502 5.128 24.127 11.521 33.314.255.366.521.712.782 1.068l-37.827-2.776c-5.964-9.253-9.811-20.377-11.005-31.606z" fill="#000000" data-original="#000000" style="" class=""/></g></g></g></svg>
